<svg version="1" xmlns="http://www.w3.org/2000/svg" width="368" height="368" viewBox="0 0 276.000000 276.000000"><path d="M135.7 16.7c-.4.3-13 .9-28 1.3-24.3.6-27.9.9-33.5 2.9-11.5 4-19 10.3-21.3 18.2-1.7 5.6.3 11.5 5 14.6 4.5 3 14.4 3.2 19.9.4 4.9-2.5 11.4-9.6 14.7-16.1 3.8-7.5 2.7-8-2.4-1.1C81.3 49 67.7 55 59 50.5c-7.7-4-6.5-14.2 2.4-21 8.4-6.4 22.6-8.7 40.6-6.6 18 2.2 23.5 2.4 27.6 1.1 5-1.6 9.4-4.7 9.4-6.6 0-1.4-2.1-1.9-3.3-.7z"/><path d="M107.4 31.2c-5.8 5.4-12.6 14.4-17.6 23.6-3.6 6.6-4.6 7.6-9.9 10.3-6.1 3-15.8 11.4-14.6 12.5.4.4 2.9-1.3 5.5-3.8 4.9-4.6 11-8.4 11.9-7.4.8.8-5.5 11.9-10.1 17.4C63.5 95 51.5 101 38.4 101 9.5 101 2.3 71 28 57.5c5.3-2.8 18.8-2.7 22.7.1 7.1 5.2 8 15.2 2 22.1-6 6.8-16 9.1-24.7 5.7-5.1-2.1-6.3-1.2-1.8 1.2 2.2 1.3 5.5 1.9 10.3 1.9 5.8 0 7.8-.5 11.6-2.7 13.2-7.8 14.5-25.3 2.3-32.4-4.3-2.6-5.9-2.9-12.9-2.8-9.2 0-13.7 1.9-19.7 8.1-5.2 5.4-7.8 11.5-7.8 18.9C10 88.2 14.9 96 24.2 100c4.2 1.8 7.2 2.3 14.3 2.3 15.1.1 26-4.2 37.1-14.5 6.1-5.7 15.5-18.3 16.8-22.6.4-1.1 2.8-2.3 6.8-3.4 3.5-.9 6.5-1.5 6.6-1.3.2.2-1.1 2.4-3 4.8-4.4 5.7-8.4 13.4-7.6 14.3.4.4 2.1.1 3.8-.6 2.4-1 3.8-2.8 6-7.6 1.5-3.5 4.5-8.8 6.5-11.9 2.1-3.1 3.5-5.8 3.3-6.1-.3-.2-2.6.8-5.2 2.2-4.9 2.8-13.6 5.7-14.4 4.9-.9-.8 9.6-21 14.2-27.3 5.3-7.2 4.5-8-2-2zM138.3 29.7c-1.6.3-4.8 5.1-12.5 18.6-5.7 10-13.6 22.4-17.5 27.5-7.4 9.4-10.1 15-3.8 7.7l3.5-4-3 6.5c-4.2 9-3.7 14 1.3 15.9 3.1 1.2 6.6-.8 11.9-6.8l4.6-5 .6 3.7c1.6 10.1 9.7 11.1 18 2.3 1.7-1.8 4-3.1 5.4-3.1 4.7 0 12.6-6.1 11.7-9-.7-2 10.3-14 12.8-14 3.2 0 2 2.7-8.7 20.5-3.6 6-6.4 11.1-6.2 11.3.2.2 2 0 3.9-.3 2.7-.5 4.3-1.8 7.1-5.8 2-2.9 5.2-7 7.1-9.2l3.4-4-.1 3.6c-.1 2 .2 4.1.6 4.7 1 1.6 4.1 1.5 7.4-.2l2.7-1.4-.3 5.2c-.3 3.8.1 5.6 1.2 6.5 2.9 2.4 6.5 1.6 10.7-2.5 3.4-3.3 3.9-3.5 3.9-1.8 0 5.1 8.2 7.4 13.8 3.9 1.5-.9 4.8-3.9 7.3-6.7l4.7-5.1-.5 4.5c-.7 6.2.8 8.8 5.2 8.8 2.8 0 4.3-1 9.6-6.5 6.4-6.5 8.4-9.3 7.6-10.1-.2-.2-3.2 2.7-6.6 6.6-7.2 8.1-9.6 9.7-11.6 8-1.9-1.6-1.1-3.4 10.5-24.4l9.1-16.6h6.5c3.6 0 6.4-.4 6.4-1s-2.5-1-5.5-1-5.5-.2-5.5-.5 1.4-3 3.1-6l3.1-5.5h-3.5c-3.3 0-3.8.4-6.8 6-2.7 5.2-3.6 6-6 6-1.6 0-2.9.4-2.9 1 0 .5.9 1 2 1s2 .2 2 .5c0 1.3-7.8 12.6-13.2 19.2-3.3 4-5.7 7.6-5.4 8.2.4.5-.5 2.2-1.9 3.8-1.6 1.8-2.3 2.2-1.9 1 .4-1 .1-5.9-.6-10.8l-1.3-9.1 2.7-2.5c1.5-1.3 2.5-3 2.3-3.6-.7-2.3-3.6-1.8-5.4 1-.9 1.5-4.6 6.4-8.1 10.7-3.4 4.4-6.1 8.5-5.8 9.3.7 1.7-11.5 14.3-13.8 14.3-1.6 0-2-1.1-1.6-4 .1-1.4 10.5-20.6 13.8-25.8 1.4-2.1 1.3-2.2-2.5-2.2s-4.3.4-10.6 8.2c-7.3 9-9.1 13-2.6 5.8 2.7-2.9 3.6-3.6 2.7-1.9-2.1 4.1-8.4 9.1-11 8.7-1.9-.2-2.3-.9-2.1-3.7.1-2.6 1.3-4.6 5.8-9.2 3.9-3.8 5.6-6.3 5.2-7.3-1.5-3.9-7.1-.4-9.6 6-1.1 2.8-8.1 10.7-8.1 9.2 0-.3.7-2.2 1.5-4.1 1.8-4.4 1.9-9.9.3-11.5-1.9-1.9-4.4-1.4-7.8 1.5-5.2 4.3-13.2 14.4-12.6 15.9.7 1.7-3.1 4.4-6.2 4.4h-2.4l2-3.3c3.1-4.9 4.2-10.2 3.1-14.2-1.7-6-7.3-7.2-14.5-3-5.4 3.2-15.5 14.5-14.9 16.6.6 1.8-11.5 13.9-13.9 13.9-4.3 0-1-7 27.6-57.3 4.3-7.6 7.8-14 7.8-14.3 0-.4-1.3-.4-4.7.3zm8.8 41.9c4.4 5.3-4.1 23.2-13.3 28-8.3 4.3-7.3-9.6 1.7-22.1 4.9-6.9 9-9 11.6-5.9zM220 81.8c-1.3 10.3-7.4 20.5-10.9 18.2-1-.6-1.1-1.2-.1-3s.9-2.5-.4-3.8c-1.4-1.4-1.3-1.8.5-4.4 1.1-1.5 1.8-3.2 1.4-3.8-.3-.5 1.6-3.6 4.2-6.9 5.6-7 6.5-6.4 5.3 3.7zm13.5.2c-.9 1.6-2 3-2.6 3-.6 0-.1-1.4 1.1-3 1.2-1.7 2.3-3 2.6-3 .2 0-.2 1.3-1.1 3z"/><path d="M209.8 47.6c-1.2 2.6-.4 5.4 1.9 6.1 1.8.6 4.3-2.7 4.3-5.8 0-2.4-.4-2.9-2.5-2.9-1.8 0-2.9.8-3.7 2.6zM140.1 114.1c-3 1.8-3.2 2.3-2.6 5.2 1.4 6.4 1.7 20.3.4 25.9-.9 4.6-.9 6.1.1 7.3 1.4 1.7 8.5 2.1 9.5.5.4-.6 1.3-.7 2.3-.1 2.4 1.2 19.4 1.2 20.9-.1 1.5-1.2 1.7-6.4.3-7.3-.5-.3-1-2.2-1-4.1 0-2.7.4-3.4 1.9-3.4 1.1 0 2.6-.3 3.4-.6.9-.3 1.6.2 2 1.5.3 1.2-.1 2.2-1 2.6-1.2.4-1.4 1.5-.9 4.6 1.1 6.9 2 7.9 7.6 7.9 3.8 0 5.2-.5 6.4-2.1l1.4-2.1 1.1 2.1c1.6 2.8 5.7 2.8 7.2-.2 1.7-3.2 1.7-3.2 4-.4 2.8 3.7 8.1 3.7 11.4.2l2.3-2.6 2.6 2.6c3.4 3.3 8.5 3.4 11.7.1l2.3-2.4 1.1 2.1c1 2 1.9 2.2 10.5 2.4 5.2.1 10-.3 10.6-.8.8-.7 1.4-.6 1.9.1.3.5 2.1 1 4 1 4.5 0 6.7-2.9 5.4-7.3-.5-1.8-.9-6.8-.9-11.2 0-5.7-.5-8.7-1.6-10.3-1.7-2.5-5.6-2.9-7.7-.7-1.3 1.3-1.6 1.3-2.7 0-1.5-1.7-4.3-1.9-7.1-.5-1.3.7-1.9.7-1.9 0 0-1.9-4.9-1-7.9 1.5-2.9 2.5-3 2.5-4 .6-2.5-4.6-10.9-4.1-14.3.8l-1.5 2.1-1.3-2.5c-2-3.8-8.5-4.9-11.9-2.2-3.3 2.7-5.3 9.8-5.2 18.3 0 6.2-.3 8.5-1.5 9.5-2 1.6-4.8.1-5.2-3-.4-2.3-2.2-3-2.2-.8 0 2.4-3.5 4.7-7.2 4.7-4.3 0-5.6-1.3-6-6.4-.4-4.6 1.3-5.8 3-2.1.6 1.4 1.6 2.5 2.2 2.5 1.5 0 1.2-2.6-.6-4.1-2.1-1.8-4.4-6.3-4.5-9.1v-2.3l-.9 2.3c-1.3 3-4 4-5.5 1.8-1.1-1.5-1.3-1.5-1.9-.1-.7 2 .4 10.4 1.5 11.1 1.5.9 1 5.2-.7 5.8-2.5 1-8.2.7-8.9-.4-.5-.8-1.1-.8-2 0-.8.6-2.9 1-4.7.8l-3.3-.3v-9.7c0-9.8-.4-11.6-2.5-10.3-.9.5-1.1 3.7-.9 10.4.4 9.4.4 9.6-2 9.9-1.2.2-3.4.1-4.8-.3-2.2-.5-2.4-.9-1.8-3.8 1.3-5.7 1.7-25.9.6-27-2.7-2.7 0-6.9 5.2-8.2l2.7-.7v7.8c0 7.8.1 7.9 1.8 5.6 2.3-3 6.2-2.6 7.9.8.7 1.4 1.3 6.2 1.3 11.2 0 8.2 1 11.7 2.4 8.2 1-2.6.7-13.4-.4-15.5-.9-1.5-.6-2.4 1.4-4.4 2.9-2.9 6.1-3.2 7.1-.8.6 1.7.7 1.7 1.6 0 1.5-2.6 4.8-2.1 5.5.8.8 3.1 1.6 3.2 2.9.2.8-1.7 2-2.3 5.4-2.5 2.4-.2 4.7 0 5.1.5 1.4 1.5 2 6.8 1 8.3-.9 1.3-1.3 1.2-2.7-.8-.8-1.2-1.9-2.2-2.4-2.2-1.8 0-.8 2.7 2 5.4 1.9 1.8 3.2 4.4 3.7 7l.7 4.1.9-3.3c.8-3.1 1.6-3.7 4.8-3.2 1.2.1 1.3-.1.2-1.1-1-1.1-1.6-1.1-3.3-.1-2.3 1.5-2.2 1.5-3.7-1.4-.9-1.7-.8-2.5.3-3.4 1.8-1.5 1.8-2.3.5-7.1-1-3.4-1.4-3.7-5.2-4.1-2.8-.3-4.7.2-6.3 1.4-1.9 1.5-2.5 1.5-3.4.4-1.7-2.1-10.9-1.8-14.8.4-3.1 1.8-3.2 1.8-4.5-.1-1.4-2.1-4.1-2.7-7-1.4-1.6.6-1.8 0-1.8-5.4 0-5.7-.2-6.1-2.2-6.1-1.3 0-3.8.9-5.7 2.1zm74.3 12.1c.9 1.2 1.6 3 1.6 4 0 2.4 1.7 2.3 2.4 0 2.1-6.4 10.1-8.1 13.9-3 2.5 3.4 3.4 13 1.7 18.2-2.3 7.2-9.6 9.8-14 5.1-2-2.1-2.5-3.9-2.9-9.8-.3-5.5-.6-6.6-1.2-4.9-1.2 3.3-4.1 2.4-5.1-1.6-.5-1.7-1.3-3.2-1.8-3.2-1.4 0-2.2 3.9-1.6 7.5.8 4.3 2.8 6 5.4 4.6 2.3-1.2 3.2-.5 3.2 2.4 0 3.5-3.7 7.5-7 7.5-8.4 0-12.1-18-5.4-26 3.3-3.8 8.5-4.2 10.8-.8zm29.6-.2c0 1.1.3 2 .8 2 .4 0 1.3-.9 2-2s2.3-2 3.6-2c1.6 0 2.7.7 3.1 2 .3 1.1.9 2 1.3 2s1.3-.9 2-2c1.5-2.5 5.8-2.6 7-.3.6 1 1.1 7.4 1.3 14.3l.4 12.5-2.8.3c-4.7.6-5.6-1.1-5-8.8.6-7.6-.2-12.5-1.9-11.4-.7.5-.9 3.6-.6 9.5.6 10 0 11.2-5.4 10.7l-3.3-.3.4-9.8c.2-6.5 0-9.7-.8-9.7-.6 0-1.1 3.6-1.3 9.7l-.3 9.8-3.6.3c-4.6.4-6.6-1.7-4.8-4.9.8-1.6 1-5.3.6-11.6-.5-9.3-.5-9.3 2.1-10.8 3.7-2 5.2-1.8 5.2.5zm-84.3 15.2c-.2 1.8-.4.6-.4-2.7 0-3.3.2-4.8.4-3.3s.2 4.2 0 6zm50.5-6c.2 1.3 1.5 2.9 3.2 3.7l2.9 1.4-2.4 1.3c-2.1 1.2-2.6 1.1-4.1-.7-1.9-2.2-2.5-7.9-.9-7.9.5 0 1.1 1 1.3 2.2zm-60.2 5.3c0 2.2-.5 4.7-1 5.5-.7 1-1-.6-1-5.5s.3-6.5 1-5.5c.5.8 1 3.3 1 5.5z"/><path d="M224.3 137.4c.4 3.7.9 7.1 1.2 7.7 1.3 1.9 2.5-.3 2.4-4.4-.1-5.6-1.1-8.9-2.8-9.5-1.2-.4-1.3.8-.8 6.2zm2.5 3.1c0 2.9 0 2.9-.8.5-.4-1.4-.8-3.9-.8-5.5 0-2.9 0-2.9.8-.5.4 1.4.8 3.8.8 5.5zM122.2 116.7c-.8.3-3.8 5.5-6.8 11.6-3.6 7.4-6.2 11.4-7.9 12.3-3 1.5-3 1.4-.6-3.4 2.9-5.8 3.4-9.6 1.7-13.5-2.8-6.9-10-7.4-15.5-1.1-3.4 3.8-4 7.4-1.5 9.9 1.5 1.5 1.8 1.5 3.5-.1 1.8-1.6 1.9-1.6 1.9 1.2 0 1.6-1.6 5.8-3.5 9.4-5.3 9.7-4.8 11 4.6 11 2.7 0 5.9.6 7 1.2 1.8 1.1 2.3 1 3.6-1 1.2-1.6 2.5-2.2 5.4-2.2 3.5 0 3.8.2 4.1 3.2.3 3.2.5 3.3 4.8 3.3s4.5-.2 4.8-3c.2-1.7.8-3.4 1.3-4 1.2-1.2 1.2-9.2-.1-10-.6-.4-1-5.3-1-11.5 0-5.9-.3-11.5-.6-12.4-.6-1.6-2.7-1.9-5.2-.9zm4.2 1.9c.3.9.6 6.2.6 11.9 0 5.9.4 10.7 1 11 .6.3 1 2.4 1 4.5s-.4 4.2-1 4.5c-.5.3-1 2.2-1 4.1 0 3.5-.1 3.5-3.7 3.2-3.5-.3-3.8-.6-4.1-3.6-.3-3-.6-3.2-4.1-3.2-2 0-4.2-.5-4.9-1.2-.9-.9-1.2-.9-1.2.3 0 .8-.7 2.4-1.5 3.5-1.2 1.6-1.6 1.7-2.4.5-.6-.9-3.1-1.5-7.1-1.7-3.4-.2-6.5-.5-6.8-.9-.3-.3 1.1-3.8 3.1-7.8 4.2-8.4 5.1-11.6 3.7-13.7-.9-1.3-1.2-1.3-2.5.4-1.6 2.1-4.5 1.5-4.5-.9 0-2.9 3-7.5 6-9 3.8-2 5.2-1.9 8.4.6 3.7 2.9 3.7 10.4 0 16.7-2 3.3-2.3 4.7-1.4 5.5.8.9 1.5.8 2.4-.6.8-.9 2-1.5 2.7-1.2 1 .3 2.8-2.6 5.9-9.7 4.8-10.8 7.4-14.8 9.5-14.8.7 0 1.6.7 1.9 1.6z"/><path d="M116 136.4c-2.5 5.9-2.5 5.6.4 5.6 2 0 2.4-.6 3-4.2 1-6.3-.9-7.1-3.4-1.4zm1.6 4.4c-1.2 1.1-1.8-.7-1-3l.8-2.3.4 2.3c.2 1.3.1 2.6-.2 3zM72.4 136.4c4.9 5 8.9 12 12.7 23 3.2 8.8 2.9 4.9-.3-4.9-3.2-9.9-10.5-20.7-14.6-21.7-1.2-.4-.4 1 2.2 3.6zM60.5 136c-.8 1.6-1.4 4.8-1.4 7.2l.1 4.3.8-5.3c.4-2.9 1.6-6.2 2.6-7.3.9-1 1.2-1.9.6-1.9s-1.8 1.3-2.7 3zM88.1 170.6c0 1.1.3 1.4.6.6.3-.7.2-1.6-.1-1.9-.3-.4-.6.2-.5 1.3zM143.3 170.1c-1.5 1.5 0 3.9 2.3 3.9 1.7 0 1.8-1.1.1-3.3-1-1.4-1.5-1.5-2.4-.6z"/><path d="M162.6 172.5c-2 3-3.6 3.2-3.6.5s-3.4-2.6-6.1.1c-2 2-2 2.1-.2 4.2 1 1.2 1.9 2.4 2 2.6.2.2 1.1.5 2.1.6.9 0 2.3.4 3 .9.7.4 1.9.2 2.8-.5.8-.6 1.7-.9 2.1-.6.3.4-.2.9-1.1 1.3-3 1.1-1.8 4 2.2 5.2 2 .6 4.3 2.1 5 3.3.7 1.1 1.2 2.2 1 2.2-.2.1-1.8 1-3.6 1.9-1.9 1-4.2 1.8-5.3 1.8-1 0-1.9.4-1.9.9 0 1.2-3 2.2-4.3 1.4-.6-.3-2.9-.7-5.1-.8-2.3-.1-3.4 0-2.4.2 1.8.5 3.3 3.3 1.7 3.3-.5 0-2-.7-3.4-1.6-1.8-1.2-2.8-1.3-4.4-.5-2.3 1.3-5.1.5-5.1-1.5 0-.8-.7-1.4-1.5-1.4-1.3 0-1.4-.4-.5-2 .6-1.1 1.6-1.7 2.2-1.4.7.4.8.3.4-.5-.4-.6-1.1-.9-1.5-.6-.5.2-.6-1.2-.4-3.2.3-3.2.2-3.5-1.2-2.3-.8.7-1.5 2-1.5 2.9 0 .9-.6 2.3-1.2 3-1.1 1.1-1 1.4 0 1.8 1.5.6.6 2.3-1.2 2.3-.8 0-1.3-.7-1.2-1.6 0-.9-.9-2-2.2-2.5-1.6-.6-2.1-.5-1.6.3s0 .9-1.7.5c-1.3-.4-2.8-.7-3.4-.7-.5 0-.3-.5.5-1 1.2-.8 1.1-1-.5-.8-4 .3-6.6-.2-6-1.2.3-.6-.3-1-1.3-1-1.1 0-2.3-.7-2.6-1.6-.3-.8-1.4-1.4-2.3-1.2-1 .1-2.4-.1-3-.5-1.5-1-1.7-6.5-.3-10.1.9-2.4.7-2.6-1.6-2.6-2.2 0-2.4.2-1.5 1.4 1 1.2.5 1.7-2.8 2.7-4.6 1.4-4.5 1.3-3 4.1 1.1 2 .9 2.1-4 1.6-2.8-.3-5.4-.1-5.7.3-.3.5.4.9 1.5.9s3.4 1.3 5.1 3c3 2.9 3 3 .8 3-1.3 0-3 .5-3.8 1-1.2.8-.9 1.4 1.8 4 3.9 3.5 4.2 3.6 4.2 1.1 0-1.1.4-2.2.9-2.6.5-.3.8-2.5.6-4.8-.4-3.8-.2-4.3 1.7-4.4 1.2-.1 2.9.2 3.9.8 1.8.9 1.8 1.1-.2 4.7-1.2 2-3 4.7-3.9 6-2.3 2.9-10.6 7.4-14.3 7.7-1.5.1-4.6 1.4-6.8 2.9-6.9 4.5-8.6 3-5-4.4 1.4-2.8 1.5-3.7.5-3.3-.8.3-1.4.9-1.4 1.4 0 1.2-3.1 1.1-5-.1-1.3-.8-1.3-1.3-.2-3.1.7-1.1 1.2-2.2 1-2.3-2.2-1.7-16.1-6.4-17.4-5.9-1.2.4-1.5.3-1-.5.4-.7.3-1.2-.3-1.2-.5 0-1.2.4-1.5.9-.4.5 1.8 1.7 4.6 2.6 2.9 1 5.8 2.2 6.3 2.7.6.6.3.7-1 .2-1.9-.6-1.9-.6-.1.8 1 .8 3 1.3 4.5 1.1 2-.4 2.3-.2 1.1.6-1 .7-1.1 1.1-.2 1.1 1.8 0 1.5 2-.5 2.7-1 .3-2.5 1.5-3.5 2.6-.9 1.2-2.8 2.1-4.5 2.2-2.4 0-2.8.4-3.1 3.3-.2 1.8.2 3.9.8 4.7.8 1 .8 1.5 0 2-.7.4-1 2-.8 3.6.4 2.8.3 2.9-3.6 2.9-4 .1-8.2 2.1-6.9 3.3.3.4 1.1.3 1.7-.3.7-.5 1.8-.5 2.5-.1 1 .7 1 1.3.2 3-.9 1.7-.9 2 .3 1.5.9-.4 1.5.4 1.8 2.5.3 2.2 0 3.1-1.1 3.4-.9.3-.5.5.9.6 1.8.1 2.1.4 1.2 1-.9.5.8 1.2 5 2.1l6.3 1.3-3.4 1.1c-1.9.7-3.7 1.8-3.9 2.6-.3.7 0 1 .6.6.6-.3 1.2 0 1.5.6.3 1 .7 1 1.9.1 1-.9 1.8-.9 2.5-.2.8.8 1.7.7 3.3-.1 3.1-1.7 3.7-.4 1.5 3.2l-1.8 3.2 3.1-2.3c1.8-1.2 3.2-2.9 3.2-3.7 0-.8.5-1.4 1.1-1.4.5 0 .8.4.5.8-.3.5-.7 2.1-1 3.6-.4 2.5-.3 2.6 1.1 1.4 1.2-.9 1.5-.9.9 0-1.2 2 .9 1.4 3-.9l1.8-2 .8 2c1.5 4.2 3 2.3 2.3-3.1-.6-4.8-.6-5 1-3.4 1 .9 2.4 1.5 3.3 1.1 2.7-1 4 2.3 2.6 6.6-1.4 3.8-1 6.8 1 8.1 1.2.8 6.6-1.8 6.6-3.2 0-.6.7-1 1.5-1s1.5.8 1.5 1.9c0 2.5 3.2 3.2 6.5 1.5 2.3-1.2 3.1-1.2 5.7.2 2 1.1 3.3 1.2 4.2.5.7-.6 2.3-.8 3.7-.5 4.4 1 15.4 4.5 17.1 5.5 1 .5 2.6.9 3.7.9 1 0 4.5 1.2 7.7 2.7l5.8 2.6 1.5-2.2c.9-1.2 4-4.8 6.9-7.9 2.8-3.1 5.2-6.2 5.2-6.8 0-1.8 3.7-4.7 4.5-3.5 1 1.7 3.8 1.3 3.1-.4-.3-.8-.1-1.5.5-1.5.5 0 1.2.7 1.6 1.5.5 1.3.8 1.3 2-.5.8-1.1 1.9-1.8 2.4-1.5.5.4.9-.1.9-1 0-3.2-3-7.2-9.5-12.9-3.6-3.2-6.4-6.1-6.1-6.4.3-.2 3.1 1.5 6.2 3.9 6.2 4.8 8.8 5.6 11 3.4.8-.8 2.1-1.2 2.9-.9 1.7.7 3.8-3.1 3-5.5-.7-2.3 1.1-7.1 2.6-7.1.7 0 2.1-.7 3.1-1.7 1.6-1.4 2.5-1.5 7.6-.4 9.9 2.2 23.2 6.9 37.5 13.3 10.1 4.5 14 5.9 14.8 5.1.9-.9-2.1-2.8-11.1-7.3-13.8-6.9-32.9-13.8-33.9-12.1-.8 1.2-9-.4-10.6-2.1-.7-.7-.2-.9 1.7-.4 1.4.3 3.4.3 4.2 0 2-.8 2.1-3.4.1-3.4-.8 0-1.5.5-1.5 1.1 0 1.1-3.3.9-11.5-.5-1.1-.2-2.3-.4-2.7-.5-.5 0-.8-.6-.8-1.2 0-.8 1.2-1 3.5-.6 1.9.3 3.7.1 4-.4.4-.5 3.3-.9 6.6-.9 3.5 0 5.9-.4 5.9-1.1 0-.6 1.6-.9 3.8-.8 2.1.2 4.4-.1 5.1-.6 1-.5 1.2-.4.7.3-.4.7-.3 1.2.3 1.2.5 0 1.8.3 2.8.7 1.6.6 1.6.5.4-1-2-2.5-.6-4.7 2.9-4.7 3 0 4-1.3 1.9-2.6-.6-.3-1.6-.1-2.2.5-2.1 2.1-4.7 1.3-4.7-1.4 0-1.4-.4-2.5-1-2.5-.5 0-1-1.6-1-3.5 0-3.6.4-3.8 9-4.7 3.7-.4 2.6-2.3-1.5-2.6-3.8-.3-17.8 4.5-17 5.8.8 1.3-2.5 3.5-3.3 2.3-.4-.6-2.9-1.3-5.7-1.7-10.6-1.3-12.7-1.8-11.4-2.7 1.1-.6 1-1.2-.4-2.7-.9-1-1.4-2.2-1-2.5.3-.4-.1-.7-1-.7s-2.1.9-2.7 1.9c-.8 1.6-.6 2.2.6 2.9 1.1.6 1.3 1.1.5 1.6-.6.4-1.1.3-1.1-.2 0-1.2-5-.6-6.3.7-1.7 1.7-3.7 1.3-3.7-.8 0-1.1-.7-2.7-1.6-3.5-1-1.1-1.1-1.6-.3-1.6s.6-.7-.5-1.9c-1.7-1.8-1.7-2 .1-2.5 1-.3-.7-.4-3.6-.2l-5.5.3 3-2.7c3-2.7 4.1-5 2.5-5-.5 0-1.6 1.1-2.5 2.5zm48.1 17.2c-.9.9-1.9 1.4-2.3 1.1-1-1 .6-2.8 2.4-2.8 1.5 0 1.5.1-.1 1.7zM117 204.2c0 .6-.9.3-2-.7-2-1.8-2-1.7-2 1.3 0 1.7-.8 3.8-1.7 4.7-1.2 1.3-1.4 2.1-.7 3.3 1.7 2.7 3.1 2.4 4.4-.8 1.5-3.6 3.3-3.8 5.4-.8 2.5 3.6 1.9 5.4-2.4 7.3-2.2 1-4 2.4-4 3.2 0 1.9-1.7 1.6-2.9-.5-.6-.9-1.1-1.1-1.1-.5 0 .7-.9 1.3-2 1.3s-2 .7-2 1.5.5 1.5 1.1 1.5c.5 0 .7.5.3 1.2-.5.8 0 .9 1.7.4 4.5-1.4 5.2-1.1 6 1.9 1.5 5.1-1.2 9.5-5.7 9.5-1.9 0-2.6-.6-3.1-3-.8-4.3-2-4.6-5.4-1.4-1.6 1.5-3.1 2.6-3.3 2.3-1.2-1.3-3.6-7.1-3.6-8.6.1-2.9 3.5-6.7 5.4-6 2 .8 2.1-.6.1-2.3-1.2-1-1.2-1.5.5-3.3 2.4-2.5 2.5-3.7.5-3.7-.8 0-1.5-.3-1.5-.8 0-1.5 4.3-3.3 8.2-3.4 4.4 0 6.2-2.3 3.5-4.3-2.1-1.5-2.2-2.6-.2-1.9 1.2.5 1.2 0 .5-2.7-.5-1.7-.7-3.6-.4-4.1.6-1 6.4 7.5 6.4 9.4zm66.3-7.7c.1.5-1.6 1.1-3.8 1.3-4 .2-4 .2-1.5-1.3 2.7-1.6 5-1.6 5.3 0zm20.7 0c0 .8-.7 1.5-1.5 1.5-1.6 0-2-1.2-.8-2.3 1.1-1.2 2.3-.8 2.3.8zm-31.4 3.8c-1.6 1.2-1.6 1.3.5 1.4 1.2.1 3-.2 4-.8 2.7-1.4 4.6 2.2 2.6 4.8-1.1 1.6-5.3 1.7-6.2.3-.4-.6-1.6-.8-2.7-.5-1.4.5-2.1.1-2.5-1.4-.6-2.2-2.5-3-2-.9.1.7-.8 1.4-2 1.6-1.3.2-2.3 0-2.3-.5 0-1.1 8-5 10.4-5.2 1.9-.1 1.9 0 .2 1.2zm-105.8 5.1c.3 1.2-.1 1.7-1 1.4-.7-.3-1.5-1.3-1.6-2.2-.3-1.2.1-1.7 1-1.4.7.3 1.5 1.3 1.6 2.2zm25.3 1.7c4 1.3 4.7 2.4 4.1 7.6-.5 4.2-3.8 4.5-7.4.5-3.2-3.5-4.1-6.1-2.7-7.8 1.4-1.7 1.2-1.7 6-.3zM59 213.4c0 .2-.9.6-2 .9-1.1.3-1.8.1-1.4-.4.5-.9 3.4-1.3 3.4-.5zm6.5.6c.3.5-.3 1-1.5 1s-1.8-.5-1.5-1c.3-.6 1-1 1.5-1s1.2.4 1.5 1zm99 1c.3.5.1 1-.4 1-.6 0-1.1-.5-1.1-1 0-.6.2-1 .4-1 .3 0 .8.4 1.1 1zm8.1-.1c-.4.5-.1 1.1.5 1.3.5.2.7 1.1.3 2.2-.5 1.4-.9 1.5-1.5.4-.7-1-.9-1.1-.9 0 0 .7-.5 1-1 .7-.6-.4-.8-1.1-.4-1.6.7-1.3-1.9-.7-2.8.6-.5.6-.8.6-.8-.2 0-.7 1.2-1.8 2.8-2.6 3.2-1.8 4.5-2 3.8-.8zm-24.7 2.5c2.8 1.5 5.1 5.3 5.1 8.7 0 3.6-4.5 6.7-10.5 7.1-2.9.1-5.1 0-4.9-.4.2-.4-.2-1-.9-1.5-.8-.4-2.2-2-3.2-3.5-2.3-3.7-1.3-7.3 2.8-9.8 3.8-2.4 7.8-2.5 11.6-.6zm-82.3 3.9c.4.4 0 .7-.9.7s-1.8-.4-2.1-.9c-.7-1 2-.9 3 .2zm94.6 6.9c-.8.8-.9.4-.5-1.3.4-1.3.8-1.8 1.1-1 .2.7-.1 1.8-.6 2.3zm-18.5 6.4c-.3.3-1.2.4-1.9.1-.8-.3-.5-.6.6-.6 1.1-.1 1.7.2 1.3.5zm-74.3 4.5c-.9 1-2.1 1.6-2.6 1.3-.6-.4-.5-1 .3-1.5s1-.9.6-.9c-.5 0-.6-.4-.2-1 .3-.5 1.2-.7 2.1-.3 1.3.5 1.3.8-.2 2.4zm95.2 5.6c-.7.7-2.6-.7-2.6-1.9 0-.6.6-.6 1.5.2.9.7 1.3 1.5 1.1 1.7zm4.4-2.3c0 .3-.4.8-1 1.1-.5.3-1 .1-1-.4 0-.6.5-1.1 1-1.1.6 0 1 .2 1 .4zm-40 3.1c-.7.8-2.2 1.4-3.4 1.4-2-.1-2-.2-.1-.6 1.1-.3 2.4-.9 3-1.4 1.5-1.4 1.9-1 .5.6zm19.3 1.2c-.7.2-1.9.2-2.5 0-.7-.3-.2-.5 1.2-.5s1.9.2 1.3.5zm-14.8 4.3c.3.5.1 1-.4 1-.6 0-1.1-.5-1.1-1 0-.6.2-1 .4-1 .3 0 .8.4 1.1 1z"/><path d="M107.8 216.7c.6.2 1.8.2 2.5 0 .6-.3.1-.5-1.3-.5-1.4 0-1.9.2-1.2.5zM121.2 172.3c2.4 1.9 3.7 5.8 3.1 8.9-.4 2.3-.2 2.6 1.6 2.1 1.1-.3 2.9-2.1 4.1-4 2-3.3 2-3.4.1-2.8-1.5.4-2.1 0-2.4-1.7l-.4-2.3-.8 2.4c-.8 2.4-.8 2.4-1.6.3-.4-1.1-1.8-2.6-3.1-3.2-2-1-2.1-1-.6.3zM84.5 174c.4.6 1.1.8 1.6.5 1.4-.9 1.1-1.5-.7-1.5-.8 0-1.2.5-.9 1zM106 177.1c0 .5.5.7 1 .4.6-.3 1-.8 1-1.1 0-.2-.4-.4-1-.4-.5 0-1 .5-1 1.1zM31.7 181.7c-2.4 2.3 3.1 6.3 8.5 6.3 2.3-.1 2.3-.1-.2-1.5-2.2-1.3-2.3-1.4-.5-1.5 1.9-.1 1.9-.2-.4-2-2.3-2-6.1-2.6-7.4-1.3zM176.1 183.9c-.9 1.6-.8 1.8.9 1.4 1.1-.3 2-1.2 2-1.9 0-2-1.8-1.7-2.9.5zM233.5 182.8c-.5.6-1.9 1.2-3 1.5-1.1.3 3.6.5 10.5.6 9.2 0 12-.2 10.7-1-2.4-1.4-16.9-2.3-18.2-1.1zM149 185.1c0 1.1.5 1.7 1 1.4.6-.3 1-1.3 1-2.1s-.4-1.4-1-1.4c-.5 0-1 .9-1 2.1zM84.5 185c.3.5 1.5 1 2.6 1 1 0 1.9-.5 1.9-1 0-.6-1.2-1-2.6-1-1.4 0-2.3.4-1.9 1zM159 189.4c.7.7 1.4.6 2.1-.1.9-.9.7-1.2-.9-1-1.4.1-1.8.5-1.2 1.1zM229.8 190.9c-1.5 1.8-1.5 2 .8 2.5 3.4.9 4.6-.1 3.1-2.4-1.5-2.5-1.8-2.5-3.9-.1zM164.5 191c.3.5 1 1 1.6 1 .5 0 .9-.5.9-1 0-.6-.7-1-1.6-1-.8 0-1.2.4-.9 1zM144.7 192.1c-1 .6-2.5.8-3.3.5-1-.4-1.4-.1-1.2.6.3.7 2.1 1.6 4.1 1.9 2.9.5 3.5.3 2.6-.7-.6-.7-.8-1.8-.4-2.4.8-1.2.5-1.2-1.8.1zM251.7 196.4c-.9 2.2.2 4.6 2 4.6 1 0 1.2-.6.8-2.3-1-3.2-2.1-4.1-2.8-2.3zM246 198c-2.4.8-2.3.8.8.9 2 .1 3.1-.3 2.7-.9-.3-.6-.7-1-.8-.9-.1.1-1.3.5-2.7.9zM237.8 199.7c.7.3 1.6.2 1.9-.1.4-.3-.2-.6-1.3-.5-1.1 0-1.4.3-.6.6zM223 202c0 .5.7 1 1.5 1s1.5-.5 1.5-1c0-.6-.7-1-1.5-1s-1.5.4-1.5 1zM245.5 207c-.3.5-1.6 1-2.8 1.1h-2.2l2.3.9c1.2.5 2.2 1.4 2.2 2 0 1.9 2.8 1 3.3-1.2.9-3.2-1.2-5.3-2.8-2.8zM235 210.1c1.1 3.8 1.5 4.3 2.9 3.4.8-.4.6-1.6-.4-3.6-2.1-3.9-3.6-3.8-2.5.2zM36.4 211.9c-.8.9-.4 5.1.6 5.1.5 0 .7.7.4 1.5-.7 1.7 2.1 2.1 3.1.5.3-.6 1.4-1 2.4-1s2.8-.9 4.1-2c1.9-1.7 2-2 .6-2-1.1 0-1.5-.5-1-1.3.6-1 .4-1-.7 0-1.8 1.8-3.2 1.6-2.5-.2.4-1.2-.2-1.4-3-1.2-2 .1-3.7.4-4 .6zM23.4 218.1c-1.2 2-1.2 5-.1 4.6 2-.6 3.2-3.6 2-4.8-.8-.8-1.3-.7-1.9.2zM32.7 223.9c-.9 1.5-1.4 3.1-1 3.5.3.3-.5.6-1.8.7-1.3 0-1.8.3-1.1.6 1 .4 1 .8.1 1.9-.9 1.1-.8 1.4.2 1.4 1.1 0 1.1.2 0 .9-1.9 1.2-2.1 4.9-.4 5.5 1.4.6 1.5.3 1.7-5.2.1-3.6 1.8-5.2 5.6-5.2 1.7 0 2.1-.3 1.2-.9-1-.6-1-1 .3-2.1 1.2-1 1.3-1.6.4-2.6-1.7-2.1-3.3-1.7-5.2 1.5zM10.1 229.1c-1.2 3.2.2 4.5 2.8 2.7 2.1-1.5 2.1-1.5.1-3.3-1.9-1.7-2-1.7-2.9.6zM18.8 229.7c1.2.2 3.2.2 4.5 0 1.2-.2.2-.4-2.3-.4s-3.5.2-2.2.4zM21 233.3c0 .7.7 2.2 1.5 3.3 1.4 1.8 1.4 1.7 1.5-1.4 0-2.2-.5-3.2-1.5-3.2-.8 0-1.5.6-1.5 1.3zM38.5 235c-3.2.6-3.4.7-1.2.9 2 .1 2.6.5 2.1 1.3-.4.7.1.6 1.2-.3 1-.9 2.6-1.9 3.4-2.2 1.3-.5 1.3-.5 0-.5-.8.1-3.3.4-5.5.8zM261.5 239c-.3.6.4 1.4 1.7 1.9 2.9 1.1 3.5.6 1.8-1.4-1.4-1.7-2.6-1.9-3.5-.5z"/></svg>